<svg xmlns="http://www.w3.org/2000/svg" width="18" height="18" viewBox="0 0 18 18" fill="none">
								<path d="M8.99984 0.666748C4.40484 0.666748 0.666504 4.40508 0.666504 9.00008V12.4526C0.666504 13.3059 1.414 14.0001 2.33317 14.0001H3.1665C3.38752 14.0001 3.59948 13.9123 3.75576 13.756C3.91204 13.5997 3.99984 13.3878 3.99984 13.1667V8.88092C3.99984 8.6599 3.91204 8.44794 3.75576 8.29166C3.59948 8.13538 3.38752 8.04758 3.1665 8.04758H2.40984C2.87317 4.82258 5.64817 2.33341 8.99984 2.33341C12.3515 2.33341 15.1265 4.82258 15.5898 8.04758H14.8332C14.6122 8.04758 14.4002 8.13538 14.2439 8.29166C14.0876 8.44794 13.9998 8.6599 13.9998 8.88092V14.0001C13.9998 14.9192 13.2523 15.6667 12.3332 15.6667H10.6665V14.8334H7.33317V17.3334H12.3332C14.1715 17.3334 15.6665 15.8384 15.6665 14.0001C16.5857 14.0001 17.3332 13.3059 17.3332 12.4526V9.00008C17.3332 4.40508 13.5948 0.666748 8.99984 0.666748Z" fill="white"></path>
							</svg>